PathFileType	4	(x/y/z)	S10_P20_T16
DataRate	CameraRate	NumFrames	NumMarkers	Units	OrigDataRate	OrigDataStartFrame	OrigNumFrames
240	240	9	51	mm	240	1	398
Frame#	Time	Sternum			R.Acromium			L.Acromium			Top.Head			R.ASIS			L.ASIS			R.PSIS			L.PSIS			R.Great.Tro			L.Great.Tro			R.Iliac.Crest			L.Iliac.Crest			V.Sacral			R.Thigh.Upper.Post			R.Thigh.Lower.Ant			R.Thigh.Lower.Post			R.Thigh.Upper.Ant			R.Knee.Lat			R.Knee.Med			R.Shank.Upper.Post			R.Shank.Lower.Ant			R.Shank.Lower.Post			R.Shank.Upper.Ant			R.Ankle.Lat			R.Ankle.Med			R.Heel.Upper			R.Heel.Med			R.Heel.Lat			R.Toe.Lat			R.Toe.Med			R.Toe.Tip			L.Thigh.Upper.Post			L.Thigh.Lower.Ant			L.Thigh.Lower.Post			L.Thigh.Upper.Ant			L.Knee.Lat			L.Knee.Med			L.Shank.Upper.Post			L.Shank.Lower.Ant			L.Shank.Lower.Post			L.Shank.Upper.Ant			L.Ankle.Lat			L.Ankle.Med			L.Heel.Upper			L.Heel.Med			L.Heel.Lat			L.Toe.Lat			L.Toe.Med			L.Toe.Tip			Cervical.Spine			Back			
		X1	Y1	Z1	X2	Y2	Z2	X3	Y3	Z3	X4	Y4	Z4	X5	Y5	Z5	X6	Y6	Z6	X7	Y7	Z7	X8	Y8	Z8	X9	Y9	Z9	X10	Y10	Z10	X11	Y11	Z11	X12	Y12	Z12	X13	Y13	Z13	X14	Y14	Z14	X15	Y15	Z15	X16	Y16	Z16	X17	Y17	Z17	X18	Y18	Z18	X19	Y19	Z19	X20	Y20	Z20	X21	Y21	Z21	X22	Y22	Z22	X23	Y23	Z23	X24	Y24	Z24	X25	Y25	Z25	X26	Y26	Z26	X27	Y27	Z27	X28	Y28	Z28	X29	Y29	Z29	X30	Y30	Z30	X31	Y31	Z31	X32	Y32	Z32	X33	Y33	Z33	X34	Y34	Z34	X35	Y35	Z35	X36	Y36	Z36	X37	Y37	Z37	X38	Y38	Z38	X39	Y39	Z39	X40	Y40	Z40	X41	Y41	Z41	X42	Y42	Z42	X43	Y43	Z43	X44	Y44	Z44	X45	Y45	Z45	X46	Y46	Z46	X47	Y47	Z47	X48	Y48	Z48	X49	Y49	Z49	X50	Y50	Z50	X51	Y51	Z51	

1	0	-1211.1	1291.9	295.7	-1316.4	1459.9	455.21	-1356	1471.2	157.41	-1345.9	1765.9	315.69	NaN	NaN	NaN	NaN	NaN	NaN	-1472.2	1046.7	336.18	-1467.8	1054.7	255.44	-1350.1	939.88	494.5	NaN	NaN	NaN	-1361	1098.7	468.18	NaN	NaN	NaN	-1493	1017.9	299.09	NaN	NaN	NaN	NaN	NaN	NaN	NaN	NaN	NaN	NaN	NaN	NaN	NaN	NaN	NaN	-1452.7	533.73	300.79	-1585.4	338.97	435.08	NaN	NaN	NaN	-1611.1	270.16	428.98	NaN	NaN	NaN	-1639	165.71	406.66	-1639.1	176.44	329	-1724.3	140.48	369.05	-1726.8	112.33	341.77	-1723.9	115.37	403.02	-1563.2	48.491	426.65	-1545.3	48.367	314.89	-1479.7	52.794	344.75	-1309.3	692.32	135.62	-1215.8	632.51	153.73	-1284.4	601.27	155.98	-1232.8	719.63	132.21	-1225.9	529.96	161.74	-1214	529.81	293	-1234	308.63	158.94	-1145.9	242.14	169.15	-1211.9	233.43	168.63	-1170.5	313.76	161.16	-1147.9	118.31	177.92	-1133.1	136.16	262.96	-1197.2	66.097	222.71	-1176.2	41.754	257.52	-1179.1	40.406	193.19	-1010.4	87.056	157.38	NaN	NaN	NaN	-945.14	141.55	216.33	-1416.5	1510.8	326.8	-1501.6	1303.2	331.69
2	0.0041667	-1206.4	1291.2	295.29	-1312.4	1458.9	454.63	-1351.1	1470.5	156.75	-1341.5	1765.2	315.15	NaN	NaN	NaN	NaN	NaN	NaN	-1467.2	1045.9	335.51	-1462.8	1053.8	254.76	-1345.5	939.31	494.09	NaN	NaN	NaN	-1356.2	1098	467.63	NaN	NaN	NaN	-1487.9	1017	298.42	NaN	NaN	NaN	NaN	NaN	NaN	NaN	NaN	NaN	NaN	NaN	NaN	NaN	NaN	NaN	-1447.8	533.02	300.78	-1582.3	339.66	435.03	NaN	NaN	NaN	-1608.5	271.06	428.98	NaN	NaN	NaN	-1637.3	166.85	406.72	-1637.2	177.53	329.06	-1722.7	142.52	369	-1725.5	114.41	341.67	-1723.2	117.52	402.75	-1562.8	48.529	426.71	-1545	48.293	315.03	-1479.7	52.736	344.78	-1303.7	691.56	135.39	-1210.2	631.82	153.9	-1279.2	600.45	155.83	-1227.2	718.83	132.41	-1220.8	529.09	161.99	-1209.2	529.07	293.11	-1230.8	307.84	159.43	-1143	240.72	169.81	-1208.8	232.59	168.91	-1166.7	312.75	161.74	-1145.8	117.32	178.29	-1131.3	134.64	263.51	-1195.7	66.399	222.87	-1175.4	41.502	257.63	-1178.1	40.522	193.29	-1008.7	84.356	158.39	NaN	NaN	NaN	-942.97	137.61	217.79	-1412	1510	326.01	-1496.8	1302.3	330.61
3	0.0083333	-1201.4	1290.5	294.85	-1308.1	1458	454.03	-1346.1	1469.8	156.07	-1336.9	1764.4	314.59	NaN	NaN	NaN	NaN	NaN	NaN	-1461.9	1045	334.83	-1457.5	1052.9	254.06	-1340.6	938.71	493.65	NaN	NaN	NaN	-1351.1	1097.3	467.05	NaN	NaN	NaN	-1482.7	1016	297.73	NaN	NaN	NaN	NaN	NaN	NaN	NaN	NaN	NaN	NaN	NaN	NaN	NaN	NaN	NaN	-1442.6	532.27	300.78	-1579	340.38	434.97	NaN	NaN	NaN	-1605.7	272.01	428.97	NaN	NaN	NaN	-1635.4	168.06	406.78	-1635.1	178.67	329.11	-1720.8	144.7	368.91	-1724	116.64	341.55	-1722.3	119.8	402.47	-1562.5	48.576	426.76	-1544.6	48.216	315.18	-1479.7	52.674	344.81	-1297.9	690.78	135.15	-1204.5	631.09	154.11	-1273.8	599.62	155.69	-1221.3	718.01	132.63	-1215.6	528.19	162.26	-1204.1	528.31	293.23	-1227.3	307.05	159.92	-1140	239.27	170.48	-1205.7	231.75	169.19	-1162.8	311.72	162.34	-1143.6	116.32	178.66	-1129.5	133.1	264.05	-1194.1	66.73	223.04	-1174.6	41.269	257.75	-1177.2	40.661	193.41	-1007	81.574	159.39	NaN	NaN	NaN	-940.74	133.52	219.22	-1407.2	1509.2	325.18	-1491.8	1301.3	329.48
4	0.0125	-1196.2	1289.9	294.39	-1303.7	1456.9	453.4	-1340.9	1469.2	155.36	-1332.2	1763.6	314.02	NaN	NaN	NaN	NaN	NaN	NaN	-1456.5	1044	334.13	-1452.1	1052	253.34	-1335.5	938.08	493.19	NaN	NaN	NaN	-1345.9	1096.6	466.46	NaN	NaN	NaN	-1477.2	1015.1	297.03	NaN	NaN	NaN	NaN	NaN	NaN	NaN	NaN	NaN	NaN	NaN	NaN	NaN	NaN	NaN	-1437.1	531.47	300.78	-1575.5	341.13	434.89	NaN	NaN	NaN	-1602.7	273.01	428.95	NaN	NaN	NaN	-1633.4	169.34	406.83	-1632.9	179.88	329.16	-1718.9	147.01	368.81	-1722.5	119.03	341.4	-1721.3	122.23	402.17	-1562.1	48.636	426.8	-1544.2	48.138	315.32	-1479.7	52.606	344.83	-1292	689.99	134.92	-1198.6	630.32	154.35	-1268.2	598.77	155.55	-1215.4	717.17	132.85	-1210.2	527.29	162.53	-1198.9	527.54	293.36	-1223.8	306.25	160.4	-1136.8	237.82	171.16	-1202.4	230.9	169.48	-1158.7	310.66	162.97	-1141.3	115.32	179.03	-1127.5	131.55	264.6	-1192.5	67.087	223.22	-1173.8	41.059	257.87	-1176.2	40.823	193.53	-1005.3	78.736	160.34	NaN	NaN	NaN	-938.48	129.32	220.59	-1402.3	1508.3	324.32	-1486.7	1300.3	328.32
5	0.016667	-1190.9	1289.2	293.91	-1299.1	1455.9	452.74	-1335.5	1468.5	154.64	-1327.3	1762.8	313.44	NaN	NaN	NaN	NaN	NaN	NaN	-1450.9	1043.1	333.41	-1446.5	1051	252.62	-1330.2	937.43	492.71	NaN	NaN	NaN	-1340.5	1095.9	465.84	NaN	NaN	NaN	-1471.6	1014.1	296.31	NaN	NaN	NaN	NaN	NaN	NaN	NaN	NaN	NaN	NaN	NaN	NaN	NaN	NaN	NaN	-1431.4	530.62	300.8	-1571.8	341.92	434.8	NaN	NaN	NaN	-1599.5	274.05	428.91	NaN	NaN	NaN	-1631.3	170.68	406.87	-1630.5	181.13	329.2	-1716.7	149.46	368.67	-1720.8	121.56	341.23	-1720.1	124.81	401.85	-1561.6	48.712	426.84	-1543.8	48.059	315.45	-1479.7	52.533	344.84	-1285.9	689.19	134.68	-1192.6	629.52	154.63	-1262.4	597.93	155.41	-1209.2	716.33	133.07	-1204.7	526.38	162.81	-1193.6	526.76	293.51	-1220.1	305.46	160.88	-1133.5	236.38	171.84	-1199.1	230.06	169.76	-1154.6	309.59	163.61	-1139	114.35	179.38	-1125.5	130	265.13	-1191	67.47	223.42	-1173	40.878	257.99	-1175.2	41.011	193.65	-1003.6	75.871	161.25	NaN	NaN	NaN	-936.21	125.05	221.88	-1397.2	1507.4	323.44	-1481.4	1299.3	327.13
6	0.020833	-1185.4	1288.5	293.42	-1294.4	1454.8	452.06	-1330.1	1467.8	153.91	-1322.4	1762	312.86	NaN	NaN	NaN	NaN	NaN	NaN	-1445.2	1042.2	332.7	-1440.8	1050	251.89	-1324.7	936.75	492.2	NaN	NaN	NaN	-1335	1095.2	465.21	NaN	NaN	NaN	-1465.9	1013.1	295.59	NaN	NaN	NaN	NaN	NaN	NaN	NaN	NaN	NaN	-1281.2	725.63	450.49	NaN	NaN	NaN	-1425.4	529.73	300.84	-1567.9	342.74	434.7	NaN	NaN	NaN	-1596.2	275.13	428.86	NaN	NaN	NaN	-1628.9	172.1	406.91	-1627.9	182.44	329.23	-1714.4	152.06	368.5	-1718.9	124.26	341.02	-1718.7	127.54	401.52	-1561.2	48.809	426.86	-1543.4	47.984	315.58	-1479.8	52.451	344.84	-1279.7	688.4	134.44	-1186.6	628.7	154.92	-1256.5	597.09	155.29	-1203	715.5	133.29	-1199	525.49	163.09	-1188.2	525.99	293.67	-1216.4	304.7	161.34	-1130.2	234.97	172.51	-1195.8	229.25	170.04	-1150.4	308.51	164.27	-1136.7	113.4	179.73	-1123.5	128.47	265.65	-1189.4	67.877	223.63	-1172.2	40.732	258.12	-1174.2	41.225	193.77	-1001.9	73.006	162.09	NaN	NaN	NaN	-933.95	120.74	223.06	-1392	1506.5	322.54	-1476	1298.3	325.91
7	0.025	-1179.9	1287.8	292.91	-1289.5	1453.7	451.37	-1324.5	1467.1	153.17	-1317.3	1761.2	312.27	NaN	NaN	NaN	NaN	NaN	NaN	-1439.4	1041.2	331.98	-1435	1049.1	251.16	-1319.1	936.06	491.67	NaN	NaN	NaN	-1329.5	1094.5	464.57	NaN	NaN	NaN	-1460	1012	294.86	NaN	NaN	NaN	NaN	NaN	NaN	NaN	NaN	NaN	-1275.9	725.05	450.34	NaN	NaN	NaN	-1419.1	528.78	300.88	-1563.8	343.59	434.58	NaN	NaN	NaN	-1592.6	276.25	428.79	NaN	NaN	NaN	-1626.4	173.58	406.93	-1625.1	183.8	329.25	-1711.8	154.8	368.3	-1716.8	127.12	340.78	-1717.2	130.42	401.17	-1560.7	48.931	426.88	-1542.9	47.913	315.69	-1479.7	52.36	344.84	-1273.4	687.63	134.2	-1180.5	627.86	155.23	-1250.6	596.28	155.17	-1196.7	714.68	133.51	-1193.3	524.62	163.38	-1182.8	525.22	293.85	-1212.5	303.97	161.78	-1126.8	233.6	173.17	-1192.4	228.48	170.32	-1146.1	307.44	164.92	-1134.5	112.49	180.06	-1121.5	126.97	266.15	-1187.8	68.306	223.85	-1171.3	40.623	258.25	-1173.3	41.464	193.9	-1000.3	70.17	162.85	NaN	NaN	NaN	-931.72	116.43	224.13	-1386.6	1505.7	321.62	-1470.6	1297.4	324.67
8	0.029167	-1174.3	1287.1	292.39	-1284.5	1452.7	450.66	-1318.9	1466.5	152.43	-1312.3	1760.5	311.68	NaN	NaN	NaN	NaN	NaN	NaN	-1433.5	1040.3	331.26	-1429.1	1048.1	250.43	-1313.4	935.35	491.13	-1285	970.06	128.01	-1323.8	1093.7	463.92	NaN	NaN	NaN	-1454.2	1011	294.14	NaN	NaN	NaN	NaN	NaN	NaN	NaN	NaN	NaN	-1270.3	724.47	450.18	NaN	NaN	NaN	-1412.7	527.78	300.95	-1559.4	344.46	434.44	NaN	NaN	NaN	-1588.9	277.41	428.71	NaN	NaN	NaN	-1623.7	175.13	406.94	-1622.1	185.21	329.26	-1709	157.7	368.06	-1714.6	130.15	340.51	-1715.3	133.46	400.81	-1560.2	49.085	426.88	-1542.5	47.85	315.78	-1479.7	52.257	344.82	-1267.1	686.87	133.96	-1174.5	627.01	155.55	-1244.6	595.5	155.06	-1190.4	713.89	133.72	-1187.5	523.78	163.65	-1177.3	524.48	294.04	-1208.6	303.29	162.18	-1123.3	232.27	173.81	-1188.9	227.74	170.58	-1141.9	306.38	165.57	-1132.2	111.63	180.37	-1119.5	125.53	266.63	-1186.3	68.751	224.08	-1170.5	40.552	258.38	-1172.4	41.727	194.03	-998.8	67.389	163.52	NaN	NaN	NaN	-929.54	112.15	225.06	-1381.2	1504.8	320.69	-1465	1296.4	323.42
9	0.033333	-1168.6	1286.4	291.85	-1279.5	1451.6	449.94	-1313.2	1465.8	151.68	-1307.2	1759.7	311.09	NaN	NaN	NaN	NaN	NaN	NaN	-1427.6	1039.3	330.55	-1423.2	1047.1	249.7	-1307.5	934.63	490.56	-1279.8	969.44	127.4	-1318.1	1093	463.26	NaN	NaN	NaN	-1448.2	1010	293.42	NaN	NaN	NaN	NaN	NaN	NaN	NaN	NaN	NaN	-1264.5	723.89	450	NaN	NaN	NaN	-1405.9	526.72	301.03	-1554.8	345.36	434.28	NaN	NaN	NaN	-1585	278.61	428.61	NaN	NaN	NaN	-1620.9	176.75	406.94	-1618.9	186.67	329.26	-1706	160.75	367.78	-1712.1	133.35	340.2	-1713.2	136.66	400.44	-1559.7	49.277	426.87	-1542	47.794	315.86	-1479.7	52.139	344.79	-1260.8	686.15	133.72	-1168.5	626.17	155.87	-1238.5	594.75	154.96	-1184.1	713.13	133.9	-1181.7	522.97	163.92	-1171.9	523.76	294.24	-1204.7	302.65	162.55	-1119.8	231	174.44	-1185.5	227.05	170.83	-1137.7	305.35	166.21	-1130	110.83	180.67	-1117.4	124.16	267.1	-1184.8	69.208	224.31	-1169.8	40.518	258.51	-1171.5	42.012	194.16	-997.35	64.69	164.09	NaN	NaN	NaN	-927.43	107.93	225.84	-1375.7	1503.9	319.75	-1459.5	1295.4	322.17
